<?xml version="1.0" encoding="UTF-8" standalone="no"?>
<!DOCTYPE svg PUBLIC "-//W3C//DTD SVG 1.1//EN"
 "http://www.w3.org/Graphics/SVG/1.1/DTD/svg11.dtd">
<!-- Generated by graphviz version 2.43.0 (0)
 -->
<!-- Title: pastafarianism Pages: 1 -->
<svg width="653pt" height="548pt"
 viewBox="0.00 0.00 652.54 548.00" xmlns="http://www.w3.org/2000/svg" xmlns:xlink="http://www.w3.org/1999/xlink">
<g id="graph0" class="graph" transform="scale(1 1) rotate(0) translate(4 544)">
<title>pastafarianism</title>
<polygon fill="white" stroke="transparent" points="-4,4 -4,-544 648.54,-544 648.54,4 -4,4"/>
<!-- Maze Solver -->
<g id="node1" class="node">
<title>Maze Solver</title>
<polygon fill="orange" stroke="black" points="280.93,-540 193.93,-540 193.93,-504 280.93,-504 280.93,-540"/>
<text text-anchor="middle" x="237.43" y="-519.8" font-family="Times,serif" font-size="9.00">Ⓜ Maze Solver</text>
</g>
<!-- Exit or Explore -->
<g id="node2" class="node">
<title>Exit or Explore</title>
<polygon fill="cyan" stroke="black" points="300.66,-442.54 300.66,-457.46 263.62,-468 211.23,-468 174.19,-457.46 174.19,-442.54 211.23,-432 263.62,-432 300.66,-442.54"/>
<text text-anchor="middle" x="237.43" y="-447.8" font-family="Times,serif" font-size="9.00">Ⓜ Exit or Explore</text>
</g>
<!-- Maze Solver&#45;&gt;Exit or Explore -->
<g id="edge1" class="edge">
<title>Maze Solver&#45;&gt;Exit or Explore</title>
<path fill="none" stroke="black" d="M237.43,-503.7C237.43,-495.98 237.43,-486.71 237.43,-478.11"/>
<polygon fill="black" stroke="black" points="240.93,-478.1 237.43,-468.1 233.93,-478.1 240.93,-478.1"/>
</g>
<!-- Check Exit -->
<g id="node3" class="node">
<title>Check Exit</title>
<ellipse fill="gray" stroke="black" cx="174.43" cy="-378" rx="38.87" ry="18"/>
<text text-anchor="middle" x="174.43" y="-375.8" font-family="Times,serif" font-size="9.00">Check Exit</text>
</g>
<!-- Exit or Explore&#45;&gt;Check Exit -->
<g id="edge2" class="edge">
<title>Exit or Explore&#45;&gt;Check Exit</title>
<path fill="none" stroke="black" d="M221.85,-431.7C214,-422.97 204.34,-412.24 195.8,-402.75"/>
<polygon fill="black" stroke="black" points="198.25,-400.24 188.96,-395.14 193.04,-404.92 198.25,-400.24"/>
</g>
<!-- Choose Algorithm -->
<g id="node4" class="node">
<title>Choose Algorithm</title>
<polygon fill="cyan" stroke="black" points="372.16,-370.54 372.16,-385.46 330.72,-396 272.13,-396 230.69,-385.46 230.69,-370.54 272.13,-360 330.72,-360 372.16,-370.54"/>
<text text-anchor="middle" x="301.43" y="-375.8" font-family="Times,serif" font-size="9.00">Ⓜ Choose Algorithm</text>
</g>
<!-- Exit or Explore&#45;&gt;Choose Algorithm -->
<g id="edge3" class="edge">
<title>Exit or Explore&#45;&gt;Choose Algorithm</title>
<path fill="none" stroke="black" d="M253.25,-431.7C261,-423.22 270.46,-412.86 278.95,-403.58"/>
<polygon fill="black" stroke="black" points="281.62,-405.85 285.79,-396.1 276.46,-401.12 281.62,-405.85"/>
</g>
<!-- Pledge Branch -->
<g id="node5" class="node">
<title>Pledge Branch</title>
<polygon fill="orange" stroke="black" points="289.93,-324 190.93,-324 190.93,-288 289.93,-288 289.93,-324"/>
<text text-anchor="middle" x="240.43" y="-303.8" font-family="Times,serif" font-size="9.00">Ⓜ Pledge Branch</text>
</g>
<!-- Choose Algorithm&#45;&gt;Pledge Branch -->
<g id="edge4" class="edge">
<title>Choose Algorithm&#45;&gt;Pledge Branch</title>
<path fill="none" stroke="black" d="M286.35,-359.7C279.03,-351.3 270.12,-341.07 262.09,-331.86"/>
<polygon fill="black" stroke="black" points="264.54,-329.34 255.33,-324.1 259.26,-333.94 264.54,-329.34"/>
</g>
<!-- Tremaux Branch -->
<g id="node16" class="node">
<title>Tremaux Branch</title>
<polygon fill="orange" stroke="black" points="416.43,-324 308.43,-324 308.43,-288 416.43,-288 416.43,-324"/>
<text text-anchor="middle" x="362.43" y="-303.8" font-family="Times,serif" font-size="9.00">Ⓜ Tremaux Branch</text>
</g>
<!-- Choose Algorithm&#45;&gt;Tremaux Branch -->
<g id="edge15" class="edge">
<title>Choose Algorithm&#45;&gt;Tremaux Branch</title>
<path fill="none" stroke="black" d="M316.5,-359.7C323.82,-351.3 332.74,-341.07 340.76,-331.86"/>
<polygon fill="black" stroke="black" points="343.59,-333.94 347.52,-324.1 338.31,-329.34 343.59,-333.94"/>
</g>
<!-- Is Pledge -->
<g id="node6" class="node">
<title>Is Pledge</title>
<ellipse fill="gray" stroke="black" cx="136.43" cy="-234" rx="34.13" ry="18"/>
<text text-anchor="middle" x="136.43" y="-231.8" font-family="Times,serif" font-size="9.00">Is Pledge</text>
</g>
<!-- Pledge Branch&#45;&gt;Is Pledge -->
<g id="edge5" class="edge">
<title>Pledge Branch&#45;&gt;Is Pledge</title>
<path fill="none" stroke="black" d="M214.98,-287.88C200,-277.79 181,-265 165.44,-254.53"/>
<polygon fill="black" stroke="black" points="166.98,-251.35 156.73,-248.67 163.08,-257.16 166.98,-251.35"/>
</g>
<!-- Pledge Algorithm -->
<g id="node7" class="node">
<title>Pledge Algorithm</title>
<polygon fill="orange" stroke="black" points="300.43,-252 188.43,-252 188.43,-216 300.43,-216 300.43,-252"/>
<text text-anchor="middle" x="244.43" y="-231.8" font-family="Times,serif" font-size="9.00">Ⓜ Pledge Algorithm</text>
</g>
<!-- Pledge Branch&#45;&gt;Pledge Algorithm -->
<g id="edge6" class="edge">
<title>Pledge Branch&#45;&gt;Pledge Algorithm</title>
<path fill="none" stroke="black" d="M241.41,-287.7C241.86,-279.98 242.38,-270.71 242.88,-262.11"/>
<polygon fill="black" stroke="black" points="246.37,-262.29 243.45,-252.1 239.38,-261.89 246.37,-262.29"/>
</g>
<!-- Update Counter -->
<g id="node8" class="node">
<title>Update Counter</title>
<ellipse fill="gray" stroke="black" cx="123.43" cy="-162" rx="52.58" ry="18"/>
<text text-anchor="middle" x="123.43" y="-159.8" font-family="Times,serif" font-size="9.00">Update Counter</text>
</g>
<!-- Pledge Algorithm&#45;&gt;Update Counter -->
<g id="edge7" class="edge">
<title>Pledge Algorithm&#45;&gt;Update Counter</title>
<path fill="none" stroke="black" d="M214.83,-215.88C197.67,-205.95 175.98,-193.4 158.03,-183.02"/>
<polygon fill="black" stroke="black" points="159.44,-179.79 149.03,-177.81 155.93,-185.85 159.44,-179.79"/>
</g>
<!-- Aligned or Follow -->
<g id="node9" class="node">
<title>Aligned or Follow</title>
<polygon fill="cyan" stroke="black" points="335.16,-154.54 335.16,-169.46 293.72,-180 235.13,-180 193.69,-169.46 193.69,-154.54 235.13,-144 293.72,-144 335.16,-154.54"/>
<text text-anchor="middle" x="264.43" y="-159.8" font-family="Times,serif" font-size="9.00">Ⓜ Aligned or Follow</text>
</g>
<!-- Pledge Algorithm&#45;&gt;Aligned or Follow -->
<g id="edge8" class="edge">
<title>Pledge Algorithm&#45;&gt;Aligned or Follow</title>
<path fill="none" stroke="black" d="M249.37,-215.7C251.6,-207.9 254.28,-198.51 256.76,-189.83"/>
<polygon fill="black" stroke="black" points="260.16,-190.68 259.54,-180.1 253.43,-188.76 260.16,-190.68"/>
</g>
<!-- Aligned Straight -->
<g id="node10" class="node">
<title>Aligned Straight</title>
<polygon fill="orange" stroke="black" points="225.43,-108 117.43,-108 117.43,-72 225.43,-72 225.43,-108"/>
<text text-anchor="middle" x="171.43" y="-87.8" font-family="Times,serif" font-size="9.00">Ⓜ Aligned Straight</text>
</g>
<!-- Aligned or Follow&#45;&gt;Aligned Straight -->
<g id="edge9" class="edge">
<title>Aligned or Follow&#45;&gt;Aligned Straight</title>
<path fill="none" stroke="black" d="M241.44,-143.7C229.61,-134.8 215.03,-123.82 202.25,-114.2"/>
<polygon fill="black" stroke="black" points="204.24,-111.32 194.15,-108.1 200.03,-116.91 204.24,-111.32"/>
</g>
<!-- Follow OR Move -->
<g id="node13" class="node">
<title>Follow OR Move</title>
<polygon fill="orange" stroke="black" points="349.43,-108 243.43,-108 243.43,-72 349.43,-72 349.43,-108"/>
<text text-anchor="middle" x="296.43" y="-87.8" font-family="Times,serif" font-size="9.00">Ⓜ Follow OR Move</text>
</g>
<!-- Aligned or Follow&#45;&gt;Follow OR Move -->
<g id="edge12" class="edge">
<title>Aligned or Follow&#45;&gt;Follow OR Move</title>
<path fill="none" stroke="black" d="M272.34,-143.7C275.98,-135.73 280.38,-126.1 284.42,-117.26"/>
<polygon fill="black" stroke="black" points="287.63,-118.65 288.61,-108.1 281.27,-115.74 287.63,-118.65"/>
</g>
<!-- Check Alignment -->
<g id="node11" class="node">
<title>Check Alignment</title>
<ellipse fill="gray" stroke="black" cx="55.43" cy="-18" rx="55.35" ry="18"/>
<text text-anchor="middle" x="55.43" y="-15.8" font-family="Times,serif" font-size="9.00">Check Alignment</text>
</g>
<!-- Aligned Straight&#45;&gt;Check Alignment -->
<g id="edge10" class="edge">
<title>Aligned Straight&#45;&gt;Check Alignment</title>
<path fill="none" stroke="black" d="M143.05,-71.88C126.83,-62.09 106.38,-49.75 89.32,-39.45"/>
<polygon fill="black" stroke="black" points="91.12,-36.45 80.75,-34.28 87.5,-42.44 91.12,-36.45"/>
</g>
<!-- Move Forward -->
<g id="node12" class="node">
<title>Move Forward</title>
<ellipse fill="gray" stroke="black" cx="176.43" cy="-18" rx="47.84" ry="18"/>
<text text-anchor="middle" x="176.43" y="-15.8" font-family="Times,serif" font-size="9.00">Move Forward</text>
</g>
<!-- Aligned Straight&#45;&gt;Move Forward -->
<g id="edge11" class="edge">
<title>Aligned Straight&#45;&gt;Move Forward</title>
<path fill="none" stroke="black" d="M172.66,-71.7C173.21,-63.98 173.87,-54.71 174.49,-46.11"/>
<polygon fill="black" stroke="black" points="177.98,-46.33 175.2,-36.1 171,-45.83 177.98,-46.33"/>
</g>
<!-- Follow Wall -->
<g id="node14" class="node">
<title>Follow Wall</title>
<ellipse fill="gray" stroke="black" cx="291.43" cy="-18" rx="39.68" ry="18"/>
<text text-anchor="middle" x="291.43" y="-15.8" font-family="Times,serif" font-size="9.00">Follow Wall</text>
</g>
<!-- Follow OR Move&#45;&gt;Follow Wall -->
<g id="edge13" class="edge">
<title>Follow OR Move&#45;&gt;Follow Wall</title>
<path fill="none" stroke="black" d="M295.19,-71.7C294.64,-63.98 293.98,-54.71 293.36,-46.11"/>
<polygon fill="black" stroke="black" points="296.85,-45.83 292.65,-36.1 289.87,-46.33 296.85,-45.83"/>
</g>
<!-- Move Forward* -->
<g id="node15" class="node">
<title>Move Forward*</title>
<ellipse fill="gray" stroke="black" cx="400.43" cy="-18" rx="50.61" ry="18"/>
<text text-anchor="middle" x="400.43" y="-15.8" font-family="Times,serif" font-size="9.00">Move Forward*</text>
</g>
<!-- Follow OR Move&#45;&gt;Move Forward* -->
<g id="edge14" class="edge">
<title>Follow OR Move&#45;&gt;Move Forward*</title>
<path fill="none" stroke="black" d="M321.87,-71.88C336.14,-62.27 354.07,-50.2 369.19,-40.02"/>
<polygon fill="black" stroke="black" points="371.38,-42.77 377.72,-34.28 367.47,-36.96 371.38,-42.77"/>
</g>
<!-- Is Tremaux -->
<g id="node17" class="node">
<title>Is Tremaux</title>
<ellipse fill="gray" stroke="black" cx="360.43" cy="-234" rx="39.02" ry="18"/>
<text text-anchor="middle" x="360.43" y="-231.8" font-family="Times,serif" font-size="9.00">Is Tremaux</text>
</g>
<!-- Tremaux Branch&#45;&gt;Is Tremaux -->
<g id="edge16" class="edge">
<title>Tremaux Branch&#45;&gt;Is Tremaux</title>
<path fill="none" stroke="black" d="M361.93,-287.7C361.71,-279.98 361.45,-270.71 361.2,-262.11"/>
<polygon fill="black" stroke="black" points="364.7,-262 360.91,-252.1 357.7,-262.2 364.7,-262"/>
</g>
<!-- Tremaux Algorithm -->
<g id="node18" class="node">
<title>Tremaux Algorithm</title>
<polygon fill="orange" stroke="black" points="538.93,-252 417.93,-252 417.93,-216 538.93,-216 538.93,-252"/>
<text text-anchor="middle" x="478.43" y="-231.8" font-family="Times,serif" font-size="9.00">Ⓜ Tremaux Algorithm</text>
</g>
<!-- Tremaux Branch&#45;&gt;Tremaux Algorithm -->
<g id="edge17" class="edge">
<title>Tremaux Branch&#45;&gt;Tremaux Algorithm</title>
<path fill="none" stroke="black" d="M390.8,-287.88C405.97,-278.72 424.83,-267.34 441.16,-257.48"/>
<polygon fill="black" stroke="black" points="443.19,-260.35 449.94,-252.19 439.57,-254.36 443.19,-260.35"/>
</g>
<!-- Exit or Choose -->
<g id="node19" class="node">
<title>Exit or Choose</title>
<polygon fill="cyan" stroke="black" points="520.91,-154.54 520.91,-169.46 484.89,-180 433.96,-180 397.94,-169.46 397.94,-154.54 433.96,-144 484.89,-144 520.91,-154.54"/>
<text text-anchor="middle" x="459.43" y="-159.8" font-family="Times,serif" font-size="9.00">Ⓜ Exit or Choose</text>
</g>
<!-- Tremaux Algorithm&#45;&gt;Exit or Choose -->
<g id="edge18" class="edge">
<title>Tremaux Algorithm&#45;&gt;Exit or Choose</title>
<path fill="none" stroke="black" d="M473.73,-215.7C471.61,-207.9 469.06,-198.51 466.71,-189.83"/>
<polygon fill="black" stroke="black" points="470.07,-188.84 464.07,-180.1 463.31,-190.67 470.07,-188.84"/>
</g>
<!-- Move Forward** -->
<g id="node22" class="node">
<title>Move Forward**</title>
<ellipse fill="gray" stroke="black" cx="591.43" cy="-162" rx="53.23" ry="18"/>
<text text-anchor="middle" x="591.43" y="-159.8" font-family="Times,serif" font-size="9.00">Move Forward**</text>
</g>
<!-- Tremaux Algorithm&#45;&gt;Move Forward** -->
<g id="edge21" class="edge">
<title>Tremaux Algorithm&#45;&gt;Move Forward**</title>
<path fill="none" stroke="black" d="M506.07,-215.88C521.84,-206.11 541.7,-193.8 558.3,-183.52"/>
<polygon fill="black" stroke="black" points="560.48,-186.29 567.14,-178.05 556.79,-180.34 560.48,-186.29"/>
</g>
<!-- Check Exit* -->
<g id="node20" class="node">
<title>Check Exit*</title>
<ellipse fill="gray" stroke="black" cx="427.43" cy="-90" rx="40.98" ry="18"/>
<text text-anchor="middle" x="427.43" y="-87.8" font-family="Times,serif" font-size="9.00">Check Exit*</text>
</g>
<!-- Exit or Choose&#45;&gt;Check Exit* -->
<g id="edge19" class="edge">
<title>Exit or Choose&#45;&gt;Check Exit*</title>
<path fill="none" stroke="black" d="M451.52,-143.7C447.87,-135.73 443.47,-126.1 439.43,-117.26"/>
<polygon fill="black" stroke="black" points="442.59,-115.74 435.24,-108.1 436.22,-118.65 442.59,-115.74"/>
</g>
<!-- Choose Direction -->
<g id="node21" class="node">
<title>Choose Direction</title>
<ellipse fill="gray" stroke="black" cx="541.43" cy="-90" rx="55.35" ry="18"/>
<text text-anchor="middle" x="541.43" y="-87.8" font-family="Times,serif" font-size="9.00">Choose Direction</text>
</g>
<!-- Exit or Choose&#45;&gt;Choose Direction -->
<g id="edge20" class="edge">
<title>Exit or Choose&#45;&gt;Choose Direction</title>
<path fill="none" stroke="black" d="M479.7,-143.7C490.23,-134.7 503.24,-123.6 514.6,-113.9"/>
<polygon fill="black" stroke="black" points="517.18,-116.3 522.51,-107.14 512.64,-110.98 517.18,-116.3"/>
</g>
</g>
</svg>
