<?xml version="1.0" encoding="UTF-8" standalone="no"?>
<!DOCTYPE svg PUBLIC "-//W3C//DTD SVG 1.1//EN"
 "http://www.w3.org/Graphics/SVG/1.1/DTD/svg11.dtd">
<!-- Generated by graphviz version 2.42.4 (0)
 -->
<!-- Title: pastafarianism Pages: 1 -->
<svg width="899pt" height="404pt"
 viewBox="0.00 0.00 898.78 404.00" xmlns="http://www.w3.org/2000/svg" xmlns:xlink="http://www.w3.org/1999/xlink">
<g id="graph0" class="graph" transform="scale(1 1) rotate(0) translate(4 400)">
<title>pastafarianism</title>
<polygon fill="white" stroke="transparent" points="-4,4 -4,-400 894.78,-400 894.78,4 -4,4"/>
<!-- Maze Solver -->
<g id="node1" class="node">
<title>Maze Solver</title>
<polygon fill="orange" stroke="black" points="272.04,-396 187.04,-396 187.04,-360 272.04,-360 272.04,-396"/>
<text text-anchor="middle" x="229.54" y="-375.8" font-family="Times,serif" font-size="9.00">Ⓜ Maze Solver</text>
</g>
<!-- Exit or Explore -->
<g id="node2" class="node">
<title>Exit or Explore</title>
<polygon fill="cyan" stroke="black" points="291.27,-298.54 291.27,-313.46 255.11,-324 203.97,-324 167.8,-313.46 167.8,-298.54 203.97,-288 255.11,-288 291.27,-298.54"/>
<text text-anchor="middle" x="229.54" y="-303.8" font-family="Times,serif" font-size="9.00">Ⓜ Exit or Explore</text>
</g>
<!-- Maze Solver&#45;&gt;Exit or Explore -->
<g id="edge1" class="edge">
<title>Maze Solver&#45;&gt;Exit or Explore</title>
<path fill="none" stroke="black" d="M229.54,-359.7C229.54,-351.98 229.54,-342.71 229.54,-334.11"/>
<polygon fill="black" stroke="black" points="233.04,-334.1 229.54,-324.1 226.04,-334.1 233.04,-334.1"/>
</g>
<!-- Check Exit -->
<g id="node3" class="node">
<title>Check Exit</title>
<ellipse fill="gray" stroke="black" cx="166.54" cy="-234" rx="38.87" ry="18"/>
<text text-anchor="middle" x="166.54" y="-231.8" font-family="Times,serif" font-size="9.00">Check Exit</text>
</g>
<!-- Exit or Explore&#45;&gt;Check Exit -->
<g id="edge2" class="edge">
<title>Exit or Explore&#45;&gt;Check Exit</title>
<path fill="none" stroke="black" d="M213.97,-287.7C206.11,-278.97 196.46,-268.24 187.92,-258.75"/>
<polygon fill="black" stroke="black" points="190.36,-256.24 181.07,-251.14 185.16,-260.92 190.36,-256.24"/>
</g>
<!-- Choose Algorithm -->
<g id="node4" class="node">
<title>Choose Algorithm</title>
<polygon fill="cyan" stroke="black" points="361.77,-226.54 361.77,-241.46 321.22,-252 263.86,-252 223.31,-241.46 223.31,-226.54 263.86,-216 321.22,-216 361.77,-226.54"/>
<text text-anchor="middle" x="292.54" y="-231.8" font-family="Times,serif" font-size="9.00">Ⓜ Choose Algorithm</text>
</g>
<!-- Exit or Explore&#45;&gt;Choose Algorithm -->
<g id="edge3" class="edge">
<title>Exit or Explore&#45;&gt;Choose Algorithm</title>
<path fill="none" stroke="black" d="M245.11,-287.7C252.74,-279.22 262.06,-268.86 270.41,-259.58"/>
<polygon fill="black" stroke="black" points="273.06,-261.88 277.14,-252.1 267.85,-257.2 273.06,-261.88"/>
</g>
<!-- Pledge Branch -->
<g id="node5" class="node">
<title>Pledge Branch</title>
<polygon fill="orange" stroke="black" points="246.04,-180 149.04,-180 149.04,-144 246.04,-144 246.04,-180"/>
<text text-anchor="middle" x="197.54" y="-159.8" font-family="Times,serif" font-size="9.00">Ⓜ Pledge Branch</text>
</g>
<!-- Choose Algorithm&#45;&gt;Pledge Branch -->
<g id="edge4" class="edge">
<title>Choose Algorithm&#45;&gt;Pledge Branch</title>
<path fill="none" stroke="black" d="M269.06,-215.7C256.98,-206.8 242.08,-195.82 229.02,-186.2"/>
<polygon fill="black" stroke="black" points="230.88,-183.22 220.75,-180.1 226.73,-188.85 230.88,-183.22"/>
</g>
<!-- Tremaux Branch -->
<g id="node11" class="node">
<title>Tremaux Branch</title>
<polygon fill="orange" stroke="black" points="440.54,-180 334.54,-180 334.54,-144 440.54,-144 440.54,-180"/>
<text text-anchor="middle" x="387.54" y="-159.8" font-family="Times,serif" font-size="9.00">Ⓜ Tremaux Branch</text>
</g>
<!-- Choose Algorithm&#45;&gt;Tremaux Branch -->
<g id="edge10" class="edge">
<title>Choose Algorithm&#45;&gt;Tremaux Branch</title>
<path fill="none" stroke="black" d="M316.02,-215.7C328.1,-206.8 342.99,-195.82 356.05,-186.2"/>
<polygon fill="black" stroke="black" points="358.35,-188.85 364.33,-180.1 354.2,-183.22 358.35,-188.85"/>
</g>
<!-- Is Pledge -->
<g id="node6" class="node">
<title>Is Pledge</title>
<ellipse fill="gray" stroke="black" cx="90.54" cy="-90" rx="34.13" ry="18"/>
<text text-anchor="middle" x="90.54" y="-87.8" font-family="Times,serif" font-size="9.00">Is Pledge</text>
</g>
<!-- Pledge Branch&#45;&gt;Is Pledge -->
<g id="edge5" class="edge">
<title>Pledge Branch&#45;&gt;Is Pledge</title>
<path fill="none" stroke="black" d="M171.36,-143.88C155.7,-133.63 135.77,-120.59 119.62,-110.03"/>
<polygon fill="black" stroke="black" points="121.37,-106.99 111.09,-104.44 117.54,-112.85 121.37,-106.99"/>
</g>
<!-- Pledge Algorithm -->
<g id="node7" class="node">
<title>Pledge Algorithm</title>
<polygon fill="orange" stroke="black" points="252.54,-108 142.54,-108 142.54,-72 252.54,-72 252.54,-108"/>
<text text-anchor="middle" x="197.54" y="-87.8" font-family="Times,serif" font-size="9.00">Ⓜ Pledge Algorithm</text>
</g>
<!-- Pledge Branch&#45;&gt;Pledge Algorithm -->
<g id="edge6" class="edge">
<title>Pledge Branch&#45;&gt;Pledge Algorithm</title>
<path fill="none" stroke="black" d="M197.54,-143.7C197.54,-135.98 197.54,-126.71 197.54,-118.11"/>
<polygon fill="black" stroke="black" points="201.04,-118.1 197.54,-108.1 194.04,-118.1 201.04,-118.1"/>
</g>
<!-- Update Counter -->
<g id="node8" class="node">
<title>Update Counter</title>
<ellipse fill="gray" stroke="black" cx="52.54" cy="-18" rx="52.58" ry="18"/>
<text text-anchor="middle" x="52.54" y="-15.8" font-family="Times,serif" font-size="9.00">Update Counter</text>
</g>
<!-- Pledge Algorithm&#45;&gt;Update Counter -->
<g id="edge7" class="edge">
<title>Pledge Algorithm&#45;&gt;Update Counter</title>
<path fill="none" stroke="black" d="M162.07,-71.88C140.5,-61.46 112.95,-48.17 90.88,-37.51"/>
<polygon fill="black" stroke="black" points="92.32,-34.32 81.79,-33.12 89.28,-40.62 92.32,-34.32"/>
</g>
<!-- Follow Wall -->
<g id="node9" class="node">
<title>Follow Wall</title>
<ellipse fill="gray" stroke="black" cx="162.54" cy="-18" rx="39.67" ry="18"/>
<text text-anchor="middle" x="162.54" y="-15.8" font-family="Times,serif" font-size="9.00">Follow Wall</text>
</g>
<!-- Pledge Algorithm&#45;&gt;Follow Wall -->
<g id="edge8" class="edge">
<title>Pledge Algorithm&#45;&gt;Follow Wall</title>
<path fill="none" stroke="black" d="M188.89,-71.7C184.8,-63.52 179.84,-53.6 175.33,-44.58"/>
<polygon fill="black" stroke="black" points="178.45,-43 170.85,-35.62 172.19,-46.13 178.45,-43"/>
</g>
<!-- Move Forward 2 -->
<g id="node10" class="node">
<title>Move Forward 2</title>
<ellipse fill="gray" stroke="black" cx="273.54" cy="-18" rx="53.23" ry="18"/>
<text text-anchor="middle" x="273.54" y="-15.8" font-family="Times,serif" font-size="9.00">Move Forward 2</text>
</g>
<!-- Pledge Algorithm&#45;&gt;Move Forward 2 -->
<g id="edge9" class="edge">
<title>Pledge Algorithm&#45;&gt;Move Forward 2</title>
<path fill="none" stroke="black" d="M216.33,-71.7C225.99,-62.79 237.91,-51.81 248.36,-42.19"/>
<polygon fill="black" stroke="black" points="251.03,-44.49 256.01,-35.14 246.28,-39.34 251.03,-44.49"/>
</g>
<!-- Is Tremaux -->
<g id="node12" class="node">
<title>Is Tremaux</title>
<ellipse fill="gray" stroke="black" cx="387.54" cy="-90" rx="39.02" ry="18"/>
<text text-anchor="middle" x="387.54" y="-87.8" font-family="Times,serif" font-size="9.00">Is Tremaux</text>
</g>
<!-- Tremaux Branch&#45;&gt;Is Tremaux -->
<g id="edge11" class="edge">
<title>Tremaux Branch&#45;&gt;Is Tremaux</title>
<path fill="none" stroke="black" d="M387.54,-143.7C387.54,-135.98 387.54,-126.71 387.54,-118.11"/>
<polygon fill="black" stroke="black" points="391.04,-118.1 387.54,-108.1 384.04,-118.1 391.04,-118.1"/>
</g>
<!-- Tremaux Algorithm -->
<g id="node13" class="node">
<title>Tremaux Algorithm</title>
<polygon fill="orange" stroke="black" points="599.04,-108 480.04,-108 480.04,-72 599.04,-72 599.04,-108"/>
<text text-anchor="middle" x="539.54" y="-87.8" font-family="Times,serif" font-size="9.00">Ⓜ Tremaux Algorithm</text>
</g>
<!-- Tremaux Branch&#45;&gt;Tremaux Algorithm -->
<g id="edge12" class="edge">
<title>Tremaux Branch&#45;&gt;Tremaux Algorithm</title>
<path fill="none" stroke="black" d="M424.72,-143.88C445.41,-134.35 471.34,-122.41 493.32,-112.28"/>
<polygon fill="black" stroke="black" points="494.86,-115.43 502.48,-108.07 491.93,-109.07 494.86,-115.43"/>
</g>
<!-- Choose Unvisited Path -->
<g id="node14" class="node">
<title>Choose Unvisited Path</title>
<ellipse fill="gray" stroke="black" cx="414.54" cy="-18" rx="69.72" ry="18"/>
<text text-anchor="middle" x="414.54" y="-15.8" font-family="Times,serif" font-size="9.00">Choose Unvisited Path</text>
</g>
<!-- Tremaux Algorithm&#45;&gt;Choose Unvisited Path -->
<g id="edge13" class="edge">
<title>Tremaux Algorithm&#45;&gt;Choose Unvisited Path</title>
<path fill="none" stroke="black" d="M508.96,-71.88C491.65,-62.18 469.87,-49.98 451.59,-39.75"/>
<polygon fill="black" stroke="black" points="453.1,-36.58 442.66,-34.75 449.68,-42.69 453.1,-36.58"/>
</g>
<!-- Mark Path -->
<g id="node15" class="node">
<title>Mark Path</title>
<ellipse fill="gray" stroke="black" cx="539.54" cy="-18" rx="37.56" ry="18"/>
<text text-anchor="middle" x="539.54" y="-15.8" font-family="Times,serif" font-size="9.00">Mark Path</text>
</g>
<!-- Tremaux Algorithm&#45;&gt;Mark Path -->
<g id="edge14" class="edge">
<title>Tremaux Algorithm&#45;&gt;Mark Path</title>
<path fill="none" stroke="black" d="M539.54,-71.7C539.54,-63.98 539.54,-54.71 539.54,-46.11"/>
<polygon fill="black" stroke="black" points="543.04,-46.1 539.54,-36.1 536.04,-46.1 543.04,-46.1"/>
</g>
<!-- Move Forward Trémaux -->
<g id="node16" class="node">
<title>Move Forward Trémaux</title>
<ellipse fill="gray" stroke="black" cx="668.54" cy="-18" rx="73.15" ry="18"/>
<text text-anchor="middle" x="668.54" y="-15.8" font-family="Times,serif" font-size="9.00">Move Forward Trémaux</text>
</g>
<!-- Tremaux Algorithm&#45;&gt;Move Forward Trémaux -->
<g id="edge15" class="edge">
<title>Tremaux Algorithm&#45;&gt;Move Forward Trémaux</title>
<path fill="none" stroke="black" d="M571.1,-71.88C589.04,-62.14 611.64,-49.87 630.56,-39.61"/>
<polygon fill="black" stroke="black" points="632.39,-42.6 639.51,-34.75 629.05,-36.44 632.39,-42.6"/>
</g>
<!-- BacktrackIfDeadEnd -->
<g id="node17" class="node">
<title>BacktrackIfDeadEnd</title>
<ellipse fill="gray" stroke="black" cx="825.54" cy="-18" rx="65.48" ry="18"/>
<text text-anchor="middle" x="825.54" y="-15.8" font-family="Times,serif" font-size="9.00">BacktrackIfDeadEnd</text>
</g>
<!-- Tremaux Algorithm&#45;&gt;BacktrackIfDeadEnd -->
<g id="edge16" class="edge">
<title>Tremaux Algorithm&#45;&gt;BacktrackIfDeadEnd</title>
<path fill="none" stroke="black" d="M599.15,-74.41C648.92,-62.23 719.42,-44.97 768.47,-32.97"/>
<polygon fill="black" stroke="black" points="769.41,-36.34 778.29,-30.56 767.75,-29.54 769.41,-36.34"/>
</g>
</g>
</svg>
