<?xml version="1.0" encoding="UTF-8" standalone="no"?>
<!DOCTYPE svg PUBLIC "-//W3C//DTD SVG 1.1//EN"
 "http://www.w3.org/Graphics/SVG/1.1/DTD/svg11.dtd">
<!-- Generated by graphviz version 2.42.4 (0)
 -->
<!-- Title: pastafarianism Pages: 1 -->
<svg width="889pt" height="404pt"
 viewBox="0.00 0.00 888.78 404.00" xmlns="http://www.w3.org/2000/svg" xmlns:xlink="http://www.w3.org/1999/xlink">
<g id="graph0" class="graph" transform="scale(1 1) rotate(0) translate(4 400)">
<title>pastafarianism</title>
<polygon fill="white" stroke="transparent" points="-4,4 -4,-400 884.78,-400 884.78,4 -4,4"/>
<!-- Maze Solver -->
<g id="node1" class="node">
<title>Maze Solver</title>
<polygon fill="orange" stroke="black" points="266.04,-396 181.04,-396 181.04,-360 266.04,-360 266.04,-396"/>
<text text-anchor="middle" x="223.54" y="-375.8" font-family="Times,serif" font-size="9.00">Ⓜ Maze Solver</text>
</g>
<!-- Exit or Explore -->
<g id="node2" class="node">
<title>Exit or Explore</title>
<polygon fill="cyan" stroke="black" points="285.27,-298.54 285.27,-313.46 249.11,-324 197.97,-324 161.8,-313.46 161.8,-298.54 197.97,-288 249.11,-288 285.27,-298.54"/>
<text text-anchor="middle" x="223.54" y="-303.8" font-family="Times,serif" font-size="9.00">Ⓜ Exit or Explore</text>
</g>
<!-- Maze Solver&#45;&gt;Exit or Explore -->
<g id="edge1" class="edge">
<title>Maze Solver&#45;&gt;Exit or Explore</title>
<path fill="none" stroke="black" d="M223.54,-359.7C223.54,-351.98 223.54,-342.71 223.54,-334.11"/>
<polygon fill="black" stroke="black" points="227.04,-334.1 223.54,-324.1 220.04,-334.1 227.04,-334.1"/>
</g>
<!-- Check Exit -->
<g id="node3" class="node">
<title>Check Exit</title>
<ellipse fill="gray" stroke="black" cx="160.54" cy="-234" rx="38.87" ry="18"/>
<text text-anchor="middle" x="160.54" y="-231.8" font-family="Times,serif" font-size="9.00">Check Exit</text>
</g>
<!-- Exit or Explore&#45;&gt;Check Exit -->
<g id="edge2" class="edge">
<title>Exit or Explore&#45;&gt;Check Exit</title>
<path fill="none" stroke="black" d="M207.97,-287.7C200.11,-278.97 190.46,-268.24 181.92,-258.75"/>
<polygon fill="black" stroke="black" points="184.36,-256.24 175.07,-251.14 179.16,-260.92 184.36,-256.24"/>
</g>
<!-- Choose Algorithm -->
<g id="node4" class="node">
<title>Choose Algorithm</title>
<polygon fill="cyan" stroke="black" points="355.77,-226.54 355.77,-241.46 315.22,-252 257.86,-252 217.31,-241.46 217.31,-226.54 257.86,-216 315.22,-216 355.77,-226.54"/>
<text text-anchor="middle" x="286.54" y="-231.8" font-family="Times,serif" font-size="9.00">Ⓜ Choose Algorithm</text>
</g>
<!-- Exit or Explore&#45;&gt;Choose Algorithm -->
<g id="edge3" class="edge">
<title>Exit or Explore&#45;&gt;Choose Algorithm</title>
<path fill="none" stroke="black" d="M239.11,-287.7C246.74,-279.22 256.06,-268.86 264.41,-259.58"/>
<polygon fill="black" stroke="black" points="267.06,-261.88 271.14,-252.1 261.85,-257.2 267.06,-261.88"/>
</g>
<!-- Pledge Branch -->
<g id="node5" class="node">
<title>Pledge Branch</title>
<polygon fill="orange" stroke="black" points="243.04,-180 146.04,-180 146.04,-144 243.04,-144 243.04,-180"/>
<text text-anchor="middle" x="194.54" y="-159.8" font-family="Times,serif" font-size="9.00">Ⓜ Pledge Branch</text>
</g>
<!-- Choose Algorithm&#45;&gt;Pledge Branch -->
<g id="edge4" class="edge">
<title>Choose Algorithm&#45;&gt;Pledge Branch</title>
<path fill="none" stroke="black" d="M263.8,-215.7C252.1,-206.8 237.68,-195.82 225.03,-186.2"/>
<polygon fill="black" stroke="black" points="227.1,-183.37 217.02,-180.1 222.86,-188.94 227.1,-183.37"/>
</g>
<!-- Tremaux Branch -->
<g id="node11" class="node">
<title>Tremaux Branch</title>
<polygon fill="orange" stroke="black" points="432.54,-180 326.54,-180 326.54,-144 432.54,-144 432.54,-180"/>
<text text-anchor="middle" x="379.54" y="-159.8" font-family="Times,serif" font-size="9.00">Ⓜ Tremaux Branch</text>
</g>
<!-- Choose Algorithm&#45;&gt;Tremaux Branch -->
<g id="edge10" class="edge">
<title>Choose Algorithm&#45;&gt;Tremaux Branch</title>
<path fill="none" stroke="black" d="M309.53,-215.7C321.35,-206.8 335.93,-195.82 348.72,-186.2"/>
<polygon fill="black" stroke="black" points="350.93,-188.91 356.81,-180.1 346.72,-183.32 350.93,-188.91"/>
</g>
<!-- Is Pledge -->
<g id="node6" class="node">
<title>Is Pledge</title>
<ellipse fill="gray" stroke="black" cx="87.54" cy="-90" rx="34.13" ry="18"/>
<text text-anchor="middle" x="87.54" y="-87.8" font-family="Times,serif" font-size="9.00">Is Pledge</text>
</g>
<!-- Pledge Branch&#45;&gt;Is Pledge -->
<g id="edge5" class="edge">
<title>Pledge Branch&#45;&gt;Is Pledge</title>
<path fill="none" stroke="black" d="M168.36,-143.88C152.7,-133.63 132.77,-120.59 116.62,-110.03"/>
<polygon fill="black" stroke="black" points="118.37,-106.99 108.09,-104.44 114.54,-112.85 118.37,-106.99"/>
</g>
<!-- Pledge Algorithm -->
<g id="node7" class="node">
<title>Pledge Algorithm</title>
<polygon fill="orange" stroke="black" points="249.54,-108 139.54,-108 139.54,-72 249.54,-72 249.54,-108"/>
<text text-anchor="middle" x="194.54" y="-87.8" font-family="Times,serif" font-size="9.00">Ⓜ Pledge Algorithm</text>
</g>
<!-- Pledge Branch&#45;&gt;Pledge Algorithm -->
<g id="edge6" class="edge">
<title>Pledge Branch&#45;&gt;Pledge Algorithm</title>
<path fill="none" stroke="black" d="M194.54,-143.7C194.54,-135.98 194.54,-126.71 194.54,-118.11"/>
<polygon fill="black" stroke="black" points="198.04,-118.1 194.54,-108.1 191.04,-118.1 198.04,-118.1"/>
</g>
<!-- Update Counter -->
<g id="node8" class="node">
<title>Update Counter</title>
<ellipse fill="gray" stroke="black" cx="52.54" cy="-18" rx="52.58" ry="18"/>
<text text-anchor="middle" x="52.54" y="-15.8" font-family="Times,serif" font-size="9.00">Update Counter</text>
</g>
<!-- Pledge Algorithm&#45;&gt;Update Counter -->
<g id="edge7" class="edge">
<title>Pledge Algorithm&#45;&gt;Update Counter</title>
<path fill="none" stroke="black" d="M159.8,-71.88C138.77,-61.51 111.95,-48.28 90.38,-37.65"/>
<polygon fill="black" stroke="black" points="91.7,-34.41 81.19,-33.12 88.61,-40.68 91.7,-34.41"/>
</g>
<!-- Follow Wall -->
<g id="node9" class="node">
<title>Follow Wall</title>
<ellipse fill="gray" stroke="black" cx="162.54" cy="-18" rx="39.67" ry="18"/>
<text text-anchor="middle" x="162.54" y="-15.8" font-family="Times,serif" font-size="9.00">Follow Wall</text>
</g>
<!-- Pledge Algorithm&#45;&gt;Follow Wall -->
<g id="edge8" class="edge">
<title>Pledge Algorithm&#45;&gt;Follow Wall</title>
<path fill="none" stroke="black" d="M186.63,-71.7C182.99,-63.73 178.58,-54.1 174.55,-45.26"/>
<polygon fill="black" stroke="black" points="177.7,-43.74 170.36,-36.1 171.33,-46.65 177.7,-43.74"/>
</g>
<!-- Move Forward -->
<g id="node10" class="node">
<title>Move Forward</title>
<ellipse fill="gray" stroke="black" cx="268.54" cy="-18" rx="47.84" ry="18"/>
<text text-anchor="middle" x="268.54" y="-15.8" font-family="Times,serif" font-size="9.00">Move Forward</text>
</g>
<!-- Pledge Algorithm&#45;&gt;Move Forward -->
<g id="edge9" class="edge">
<title>Pledge Algorithm&#45;&gt;Move Forward</title>
<path fill="none" stroke="black" d="M212.83,-71.7C222.31,-62.73 234.02,-51.65 244.25,-41.98"/>
<polygon fill="black" stroke="black" points="246.86,-44.32 251.72,-34.91 242.05,-39.24 246.86,-44.32"/>
</g>
<!-- Is Tremaux -->
<g id="node12" class="node">
<title>Is Tremaux</title>
<ellipse fill="gray" stroke="black" cx="379.54" cy="-90" rx="39.02" ry="18"/>
<text text-anchor="middle" x="379.54" y="-87.8" font-family="Times,serif" font-size="9.00">Is Tremaux</text>
</g>
<!-- Tremaux Branch&#45;&gt;Is Tremaux -->
<g id="edge11" class="edge">
<title>Tremaux Branch&#45;&gt;Is Tremaux</title>
<path fill="none" stroke="black" d="M379.54,-143.7C379.54,-135.98 379.54,-126.71 379.54,-118.11"/>
<polygon fill="black" stroke="black" points="383.04,-118.1 379.54,-108.1 376.04,-118.1 383.04,-118.1"/>
</g>
<!-- Tremaux Algorithm -->
<g id="node13" class="node">
<title>Tremaux Algorithm</title>
<polygon fill="orange" stroke="black" points="589.04,-108 470.04,-108 470.04,-72 589.04,-72 589.04,-108"/>
<text text-anchor="middle" x="529.54" y="-87.8" font-family="Times,serif" font-size="9.00">Ⓜ Tremaux Algorithm</text>
</g>
<!-- Tremaux Branch&#45;&gt;Tremaux Algorithm -->
<g id="edge12" class="edge">
<title>Tremaux Branch&#45;&gt;Tremaux Algorithm</title>
<path fill="none" stroke="black" d="M416.23,-143.88C436.56,-134.39 462.01,-122.51 483.64,-112.42"/>
<polygon fill="black" stroke="black" points="485.38,-115.47 492.96,-108.07 482.42,-109.13 485.38,-115.47"/>
</g>
<!-- Choose Unvisited Path -->
<g id="node14" class="node">
<title>Choose Unvisited Path</title>
<ellipse fill="gray" stroke="black" cx="404.54" cy="-18" rx="69.72" ry="18"/>
<text text-anchor="middle" x="404.54" y="-15.8" font-family="Times,serif" font-size="9.00">Choose Unvisited Path</text>
</g>
<!-- Tremaux Algorithm&#45;&gt;Choose Unvisited Path -->
<g id="edge13" class="edge">
<title>Tremaux Algorithm&#45;&gt;Choose Unvisited Path</title>
<path fill="none" stroke="black" d="M498.96,-71.88C481.65,-62.18 459.87,-49.98 441.59,-39.75"/>
<polygon fill="black" stroke="black" points="443.1,-36.58 432.66,-34.75 439.68,-42.69 443.1,-36.58"/>
</g>
<!-- Mark Path -->
<g id="node15" class="node">
<title>Mark Path</title>
<ellipse fill="gray" stroke="black" cx="529.54" cy="-18" rx="37.56" ry="18"/>
<text text-anchor="middle" x="529.54" y="-15.8" font-family="Times,serif" font-size="9.00">Mark Path</text>
</g>
<!-- Tremaux Algorithm&#45;&gt;Mark Path -->
<g id="edge14" class="edge">
<title>Tremaux Algorithm&#45;&gt;Mark Path</title>
<path fill="none" stroke="black" d="M529.54,-71.7C529.54,-63.98 529.54,-54.71 529.54,-46.11"/>
<polygon fill="black" stroke="black" points="533.04,-46.1 529.54,-36.1 526.04,-46.1 533.04,-46.1"/>
</g>
<!-- Move Forward Trémaux -->
<g id="node16" class="node">
<title>Move Forward Trémaux</title>
<ellipse fill="gray" stroke="black" cx="658.54" cy="-18" rx="73.15" ry="18"/>
<text text-anchor="middle" x="658.54" y="-15.8" font-family="Times,serif" font-size="9.00">Move Forward Trémaux</text>
</g>
<!-- Tremaux Algorithm&#45;&gt;Move Forward Trémaux -->
<g id="edge15" class="edge">
<title>Tremaux Algorithm&#45;&gt;Move Forward Trémaux</title>
<path fill="none" stroke="black" d="M561.1,-71.88C579.04,-62.14 601.64,-49.87 620.56,-39.61"/>
<polygon fill="black" stroke="black" points="622.39,-42.6 629.51,-34.75 619.05,-36.44 622.39,-42.6"/>
</g>
<!-- BacktrackIfDeadEnd -->
<g id="node17" class="node">
<title>BacktrackIfDeadEnd</title>
<ellipse fill="gray" stroke="black" cx="815.54" cy="-18" rx="65.48" ry="18"/>
<text text-anchor="middle" x="815.54" y="-15.8" font-family="Times,serif" font-size="9.00">BacktrackIfDeadEnd</text>
</g>
<!-- Tremaux Algorithm&#45;&gt;BacktrackIfDeadEnd -->
<g id="edge16" class="edge">
<title>Tremaux Algorithm&#45;&gt;BacktrackIfDeadEnd</title>
<path fill="none" stroke="black" d="M589.15,-74.41C638.92,-62.23 709.42,-44.97 758.47,-32.97"/>
<polygon fill="black" stroke="black" points="759.41,-36.34 768.29,-30.56 757.75,-29.54 759.41,-36.34"/>
</g>
</g>
</svg>
