<?xml version="1.0" encoding="UTF-8" standalone="no"?>
<!DOCTYPE svg PUBLIC "-//W3C//DTD SVG 1.1//EN"
 "http://www.w3.org/Graphics/SVG/1.1/DTD/svg11.dtd">
<!-- Generated by graphviz version 2.43.0 (0)
 -->
<!-- Title: pastafarianism Pages: 1 -->
<svg width="757pt" height="548pt"
 viewBox="0.00 0.00 756.78 548.00" xmlns="http://www.w3.org/2000/svg" xmlns:xlink="http://www.w3.org/1999/xlink">
<g id="graph0" class="graph" transform="scale(1 1) rotate(0) translate(4 544)">
<title>pastafarianism</title>
<polygon fill="white" stroke="transparent" points="-4,4 -4,-544 752.78,-544 752.78,4 -4,4"/>
<!-- Maze Solver -->
<g id="node1" class="node">
<title>Maze Solver</title>
<polygon fill="orange" stroke="black" points="204.04,-540 119.04,-540 119.04,-504 204.04,-504 204.04,-540"/>
<text text-anchor="middle" x="161.54" y="-519.8" font-family="Times,serif" font-size="9.00">Ⓜ Maze Solver</text>
</g>
<!-- Exit or Explore -->
<g id="node2" class="node">
<title>Exit or Explore</title>
<polygon fill="cyan" stroke="black" points="223.27,-442.54 223.27,-457.46 187.11,-468 135.97,-468 99.8,-457.46 99.8,-442.54 135.97,-432 187.11,-432 223.27,-442.54"/>
<text text-anchor="middle" x="161.54" y="-447.8" font-family="Times,serif" font-size="9.00">Ⓜ Exit or Explore</text>
</g>
<!-- Maze Solver&#45;&gt;Exit or Explore -->
<g id="edge1" class="edge">
<title>Maze Solver&#45;&gt;Exit or Explore</title>
<path fill="none" stroke="black" d="M161.54,-503.7C161.54,-495.98 161.54,-486.71 161.54,-478.11"/>
<polygon fill="black" stroke="black" points="165.04,-478.1 161.54,-468.1 158.04,-478.1 165.04,-478.1"/>
</g>
<!-- Check Exit -->
<g id="node3" class="node">
<title>Check Exit</title>
<ellipse fill="gray" stroke="black" cx="98.54" cy="-378" rx="38.87" ry="18"/>
<text text-anchor="middle" x="98.54" y="-375.8" font-family="Times,serif" font-size="9.00">Check Exit</text>
</g>
<!-- Exit or Explore&#45;&gt;Check Exit -->
<g id="edge2" class="edge">
<title>Exit or Explore&#45;&gt;Check Exit</title>
<path fill="none" stroke="black" d="M145.97,-431.7C138.11,-422.97 128.46,-412.24 119.92,-402.75"/>
<polygon fill="black" stroke="black" points="122.36,-400.24 113.07,-395.14 117.16,-404.92 122.36,-400.24"/>
</g>
<!-- Choose Algorithm -->
<g id="node4" class="node">
<title>Choose Algorithm</title>
<polygon fill="cyan" stroke="black" points="293.77,-370.54 293.77,-385.46 253.22,-396 195.86,-396 155.31,-385.46 155.31,-370.54 195.86,-360 253.22,-360 293.77,-370.54"/>
<text text-anchor="middle" x="224.54" y="-375.8" font-family="Times,serif" font-size="9.00">Ⓜ Choose Algorithm</text>
</g>
<!-- Exit or Explore&#45;&gt;Choose Algorithm -->
<g id="edge3" class="edge">
<title>Exit or Explore&#45;&gt;Choose Algorithm</title>
<path fill="none" stroke="black" d="M177.11,-431.7C184.74,-423.22 194.06,-412.86 202.41,-403.58"/>
<polygon fill="black" stroke="black" points="205.06,-405.88 209.14,-396.1 199.85,-401.2 205.06,-405.88"/>
</g>
<!-- Pledge Branch -->
<g id="node5" class="node">
<title>Pledge Branch</title>
<polygon fill="orange" stroke="black" points="212.04,-324 115.04,-324 115.04,-288 212.04,-288 212.04,-324"/>
<text text-anchor="middle" x="163.54" y="-303.8" font-family="Times,serif" font-size="9.00">Ⓜ Pledge Branch</text>
</g>
<!-- Choose Algorithm&#45;&gt;Pledge Branch -->
<g id="edge4" class="edge">
<title>Choose Algorithm&#45;&gt;Pledge Branch</title>
<path fill="none" stroke="black" d="M209.46,-359.7C202.15,-351.3 193.23,-341.07 185.2,-331.86"/>
<polygon fill="black" stroke="black" points="187.65,-329.34 178.44,-324.1 182.38,-333.94 187.65,-329.34"/>
</g>
<!-- Tremaux Branch -->
<g id="node11" class="node">
<title>Tremaux Branch</title>
<polygon fill="orange" stroke="black" points="338.54,-324 232.54,-324 232.54,-288 338.54,-288 338.54,-324"/>
<text text-anchor="middle" x="285.54" y="-303.8" font-family="Times,serif" font-size="9.00">Ⓜ Tremaux Branch</text>
</g>
<!-- Choose Algorithm&#45;&gt;Tremaux Branch -->
<g id="edge10" class="edge">
<title>Choose Algorithm&#45;&gt;Tremaux Branch</title>
<path fill="none" stroke="black" d="M239.62,-359.7C246.93,-351.3 255.85,-341.07 263.87,-331.86"/>
<polygon fill="black" stroke="black" points="266.7,-333.94 270.63,-324.1 261.43,-329.34 266.7,-333.94"/>
</g>
<!-- Is Pledge -->
<g id="node6" class="node">
<title>Is Pledge</title>
<ellipse fill="gray" stroke="black" cx="56.54" cy="-234" rx="34.13" ry="18"/>
<text text-anchor="middle" x="56.54" y="-231.8" font-family="Times,serif" font-size="9.00">Is Pledge</text>
</g>
<!-- Pledge Branch&#45;&gt;Is Pledge -->
<g id="edge5" class="edge">
<title>Pledge Branch&#45;&gt;Is Pledge</title>
<path fill="none" stroke="black" d="M137.36,-287.88C121.7,-277.63 101.77,-264.59 85.62,-254.03"/>
<polygon fill="black" stroke="black" points="87.37,-250.99 77.09,-248.44 83.54,-256.85 87.37,-250.99"/>
</g>
<!-- Pledge Algorithm -->
<g id="node7" class="node">
<title>Pledge Algorithm</title>
<polygon fill="orange" stroke="black" points="218.54,-252 108.54,-252 108.54,-216 218.54,-216 218.54,-252"/>
<text text-anchor="middle" x="163.54" y="-231.8" font-family="Times,serif" font-size="9.00">Ⓜ Pledge Algorithm</text>
</g>
<!-- Pledge Branch&#45;&gt;Pledge Algorithm -->
<g id="edge6" class="edge">
<title>Pledge Branch&#45;&gt;Pledge Algorithm</title>
<path fill="none" stroke="black" d="M163.54,-287.7C163.54,-279.98 163.54,-270.71 163.54,-262.11"/>
<polygon fill="black" stroke="black" points="167.04,-262.1 163.54,-252.1 160.04,-262.1 167.04,-262.1"/>
</g>
<!-- Update Counter -->
<g id="node8" class="node">
<title>Update Counter</title>
<ellipse fill="gray" stroke="black" cx="52.54" cy="-162" rx="52.58" ry="18"/>
<text text-anchor="middle" x="52.54" y="-159.8" font-family="Times,serif" font-size="9.00">Update Counter</text>
</g>
<!-- Pledge Algorithm&#45;&gt;Update Counter -->
<g id="edge7" class="edge">
<title>Pledge Algorithm&#45;&gt;Update Counter</title>
<path fill="none" stroke="black" d="M136.39,-215.88C120.9,-206.11 101.38,-193.8 85.08,-183.52"/>
<polygon fill="black" stroke="black" points="86.72,-180.42 76.4,-178.05 82.99,-186.34 86.72,-180.42"/>
</g>
<!-- Follow Wall -->
<g id="node9" class="node">
<title>Follow Wall</title>
<ellipse fill="gray" stroke="black" cx="162.54" cy="-162" rx="39.67" ry="18"/>
<text text-anchor="middle" x="162.54" y="-159.8" font-family="Times,serif" font-size="9.00">Follow Wall</text>
</g>
<!-- Pledge Algorithm&#45;&gt;Follow Wall -->
<g id="edge8" class="edge">
<title>Pledge Algorithm&#45;&gt;Follow Wall</title>
<path fill="none" stroke="black" d="M163.29,-215.7C163.18,-207.98 163.05,-198.71 162.93,-190.11"/>
<polygon fill="black" stroke="black" points="166.43,-190.05 162.78,-180.1 159.43,-190.15 166.43,-190.05"/>
</g>
<!-- Move Forward 2 -->
<g id="node10" class="node">
<title>Move Forward 2</title>
<ellipse fill="gray" stroke="black" cx="273.54" cy="-162" rx="53.23" ry="18"/>
<text text-anchor="middle" x="273.54" y="-159.8" font-family="Times,serif" font-size="9.00">Move Forward 2</text>
</g>
<!-- Pledge Algorithm&#45;&gt;Move Forward 2 -->
<g id="edge9" class="edge">
<title>Pledge Algorithm&#45;&gt;Move Forward 2</title>
<path fill="none" stroke="black" d="M190.45,-215.88C205.69,-206.18 224.86,-193.97 240.95,-183.74"/>
<polygon fill="black" stroke="black" points="242.97,-186.6 249.53,-178.28 239.21,-180.7 242.97,-186.6"/>
</g>
<!-- Is Tremaux -->
<g id="node12" class="node">
<title>Is Tremaux</title>
<ellipse fill="gray" stroke="black" cx="285.54" cy="-234" rx="39.02" ry="18"/>
<text text-anchor="middle" x="285.54" y="-231.8" font-family="Times,serif" font-size="9.00">Is Tremaux</text>
</g>
<!-- Tremaux Branch&#45;&gt;Is Tremaux -->
<g id="edge11" class="edge">
<title>Tremaux Branch&#45;&gt;Is Tremaux</title>
<path fill="none" stroke="black" d="M285.54,-287.7C285.54,-279.98 285.54,-270.71 285.54,-262.11"/>
<polygon fill="black" stroke="black" points="289.04,-262.1 285.54,-252.1 282.04,-262.1 289.04,-262.1"/>
</g>
<!-- Tremaux Algorithm -->
<g id="node13" class="node">
<title>Tremaux Algorithm</title>
<polygon fill="orange" stroke="black" points="467.04,-252 348.04,-252 348.04,-216 467.04,-216 467.04,-252"/>
<text text-anchor="middle" x="407.54" y="-231.8" font-family="Times,serif" font-size="9.00">Ⓜ Tremaux Algorithm</text>
</g>
<!-- Tremaux Branch&#45;&gt;Tremaux Algorithm -->
<g id="edge12" class="edge">
<title>Tremaux Branch&#45;&gt;Tremaux Algorithm</title>
<path fill="none" stroke="black" d="M315.38,-287.88C331.48,-278.64 351.54,-267.13 368.83,-257.21"/>
<polygon fill="black" stroke="black" points="370.65,-260.2 377.58,-252.19 367.16,-254.13 370.65,-260.2"/>
</g>
<!-- Exit or Explore* -->
<g id="node14" class="node">
<title>Exit or Explore*</title>
<polygon fill="cyan" stroke="black" points="474.52,-154.54 474.52,-169.46 436.46,-180 382.62,-180 344.56,-169.46 344.56,-154.54 382.62,-144 436.46,-144 474.52,-154.54"/>
<text text-anchor="middle" x="409.54" y="-159.8" font-family="Times,serif" font-size="9.00">Ⓜ Exit or Explore*</text>
</g>
<!-- Tremaux Algorithm&#45;&gt;Exit or Explore* -->
<g id="edge13" class="edge">
<title>Tremaux Algorithm&#45;&gt;Exit or Explore*</title>
<path fill="none" stroke="black" d="M408.03,-215.7C408.25,-207.98 408.52,-198.71 408.76,-190.11"/>
<polygon fill="black" stroke="black" points="412.26,-190.2 409.05,-180.1 405.27,-190 412.26,-190.2"/>
</g>
<!-- Check Exit* -->
<g id="node15" class="node">
<title>Check Exit*</title>
<ellipse fill="gray" stroke="black" cx="358.54" cy="-90" rx="40.98" ry="18"/>
<text text-anchor="middle" x="358.54" y="-87.8" font-family="Times,serif" font-size="9.00">Check Exit*</text>
</g>
<!-- Exit or Explore*&#45;&gt;Check Exit* -->
<g id="edge14" class="edge">
<title>Exit or Explore*&#45;&gt;Check Exit*</title>
<path fill="none" stroke="black" d="M396.93,-143.7C390.79,-135.27 383.29,-124.97 376.56,-115.73"/>
<polygon fill="black" stroke="black" points="379.37,-113.64 370.65,-107.62 373.71,-117.77 379.37,-113.64"/>
</g>
<!-- Explore Step -->
<g id="node16" class="node">
<title>Explore Step</title>
<polygon fill="orange" stroke="black" points="506.04,-108 417.04,-108 417.04,-72 506.04,-72 506.04,-108"/>
<text text-anchor="middle" x="461.54" y="-87.8" font-family="Times,serif" font-size="9.00">Ⓜ Explore Step</text>
</g>
<!-- Exit or Explore*&#45;&gt;Explore Step -->
<g id="edge15" class="edge">
<title>Exit or Explore*&#45;&gt;Explore Step</title>
<path fill="none" stroke="black" d="M422.39,-143.7C428.56,-135.39 436.08,-125.28 442.86,-116.14"/>
<polygon fill="black" stroke="black" points="445.68,-118.22 448.83,-108.1 440.06,-114.04 445.68,-118.22"/>
</g>
<!-- Choose Unvisited Path -->
<g id="node17" class="node">
<title>Choose Unvisited Path</title>
<ellipse fill="gray" stroke="black" cx="272.54" cy="-18" rx="69.72" ry="18"/>
<text text-anchor="middle" x="272.54" y="-15.8" font-family="Times,serif" font-size="9.00">Choose Unvisited Path</text>
</g>
<!-- Explore Step&#45;&gt;Choose Unvisited Path -->
<g id="edge16" class="edge">
<title>Explore Step&#45;&gt;Choose Unvisited Path</title>
<path fill="none" stroke="black" d="M416.75,-72.41C387.72,-61.66 349.94,-47.67 320.33,-36.7"/>
<polygon fill="black" stroke="black" points="321.22,-33.3 310.63,-33.11 318.79,-39.86 321.22,-33.3"/>
</g>
<!-- Mark Path -->
<g id="node18" class="node">
<title>Mark Path</title>
<ellipse fill="gray" stroke="black" cx="397.54" cy="-18" rx="37.56" ry="18"/>
<text text-anchor="middle" x="397.54" y="-15.8" font-family="Times,serif" font-size="9.00">Mark Path</text>
</g>
<!-- Explore Step&#45;&gt;Mark Path -->
<g id="edge17" class="edge">
<title>Explore Step&#45;&gt;Mark Path</title>
<path fill="none" stroke="black" d="M445.72,-71.7C437.54,-62.75 427.45,-51.71 418.62,-42.06"/>
<polygon fill="black" stroke="black" points="421.2,-39.69 411.87,-34.67 416.03,-44.41 421.2,-39.69"/>
</g>
<!-- Move Forward Trémaux -->
<g id="node19" class="node">
<title>Move Forward Trémaux</title>
<ellipse fill="gray" stroke="black" cx="526.54" cy="-18" rx="73.15" ry="18"/>
<text text-anchor="middle" x="526.54" y="-15.8" font-family="Times,serif" font-size="9.00">Move Forward Trémaux</text>
</g>
<!-- Explore Step&#45;&gt;Move Forward Trémaux -->
<g id="edge18" class="edge">
<title>Explore Step&#45;&gt;Move Forward Trémaux</title>
<path fill="none" stroke="black" d="M477.61,-71.7C485.6,-63.09 495.38,-52.55 504.1,-43.17"/>
<polygon fill="black" stroke="black" points="506.86,-45.33 511.1,-35.62 501.73,-40.57 506.86,-45.33"/>
</g>
<!-- BacktrackIfDeadEnd -->
<g id="node20" class="node">
<title>BacktrackIfDeadEnd</title>
<ellipse fill="gray" stroke="black" cx="683.54" cy="-18" rx="65.48" ry="18"/>
<text text-anchor="middle" x="683.54" y="-15.8" font-family="Times,serif" font-size="9.00">BacktrackIfDeadEnd</text>
</g>
<!-- Explore Step&#45;&gt;BacktrackIfDeadEnd -->
<g id="edge19" class="edge">
<title>Explore Step&#45;&gt;BacktrackIfDeadEnd</title>
<path fill="none" stroke="black" d="M506.2,-74.92C542.69,-63.41 594.3,-47.14 632.44,-35.11"/>
<polygon fill="black" stroke="black" points="633.84,-38.34 642.32,-32 631.73,-31.66 633.84,-38.34"/>
</g>
</g>
</svg>
