<?xml version="1.0" encoding="UTF-8" standalone="no"?>
<!DOCTYPE svg PUBLIC "-//W3C//DTD SVG 1.1//EN"
 "http://www.w3.org/Graphics/SVG/1.1/DTD/svg11.dtd">
<!-- Generated by graphviz version 2.43.0 (0)
 -->
<!-- Title: pastafarianism Pages: 1 -->
<svg width="747pt" height="548pt"
 viewBox="0.00 0.00 746.78 548.00" xmlns="http://www.w3.org/2000/svg" xmlns:xlink="http://www.w3.org/1999/xlink">
<g id="graph0" class="graph" transform="scale(1 1) rotate(0) translate(4 544)">
<title>pastafarianism</title>
<polygon fill="white" stroke="transparent" points="-4,4 -4,-544 742.78,-544 742.78,4 -4,4"/>
<!-- Maze Solver -->
<g id="node1" class="node">
<title>Maze Solver</title>
<polygon fill="orange" stroke="black" points="202.04,-540 117.04,-540 117.04,-504 202.04,-504 202.04,-540"/>
<text text-anchor="middle" x="159.54" y="-519.8" font-family="Times,serif" font-size="9.00">Ⓜ Maze Solver</text>
</g>
<!-- Exit or Explore -->
<g id="node2" class="node">
<title>Exit or Explore</title>
<polygon fill="cyan" stroke="black" points="221.27,-442.54 221.27,-457.46 185.11,-468 133.97,-468 97.8,-457.46 97.8,-442.54 133.97,-432 185.11,-432 221.27,-442.54"/>
<text text-anchor="middle" x="159.54" y="-447.8" font-family="Times,serif" font-size="9.00">Ⓜ Exit or Explore</text>
</g>
<!-- Maze Solver&#45;&gt;Exit or Explore -->
<g id="edge1" class="edge">
<title>Maze Solver&#45;&gt;Exit or Explore</title>
<path fill="none" stroke="black" d="M159.54,-503.7C159.54,-495.98 159.54,-486.71 159.54,-478.11"/>
<polygon fill="black" stroke="black" points="163.04,-478.1 159.54,-468.1 156.04,-478.1 163.04,-478.1"/>
</g>
<!-- Check Exit -->
<g id="node3" class="node">
<title>Check Exit</title>
<ellipse fill="gray" stroke="black" cx="96.54" cy="-378" rx="38.87" ry="18"/>
<text text-anchor="middle" x="96.54" y="-375.8" font-family="Times,serif" font-size="9.00">Check Exit</text>
</g>
<!-- Exit or Explore&#45;&gt;Check Exit -->
<g id="edge2" class="edge">
<title>Exit or Explore&#45;&gt;Check Exit</title>
<path fill="none" stroke="black" d="M143.97,-431.7C136.11,-422.97 126.46,-412.24 117.92,-402.75"/>
<polygon fill="black" stroke="black" points="120.36,-400.24 111.07,-395.14 115.16,-404.92 120.36,-400.24"/>
</g>
<!-- Choose Algorithm -->
<g id="node4" class="node">
<title>Choose Algorithm</title>
<polygon fill="cyan" stroke="black" points="291.77,-370.54 291.77,-385.46 251.22,-396 193.86,-396 153.31,-385.46 153.31,-370.54 193.86,-360 251.22,-360 291.77,-370.54"/>
<text text-anchor="middle" x="222.54" y="-375.8" font-family="Times,serif" font-size="9.00">Ⓜ Choose Algorithm</text>
</g>
<!-- Exit or Explore&#45;&gt;Choose Algorithm -->
<g id="edge3" class="edge">
<title>Exit or Explore&#45;&gt;Choose Algorithm</title>
<path fill="none" stroke="black" d="M175.11,-431.7C182.74,-423.22 192.06,-412.86 200.41,-403.58"/>
<polygon fill="black" stroke="black" points="203.06,-405.88 207.14,-396.1 197.85,-401.2 203.06,-405.88"/>
</g>
<!-- Pledge Branch -->
<g id="node5" class="node">
<title>Pledge Branch</title>
<polygon fill="orange" stroke="black" points="211.04,-324 114.04,-324 114.04,-288 211.04,-288 211.04,-324"/>
<text text-anchor="middle" x="162.54" y="-303.8" font-family="Times,serif" font-size="9.00">Ⓜ Pledge Branch</text>
</g>
<!-- Choose Algorithm&#45;&gt;Pledge Branch -->
<g id="edge4" class="edge">
<title>Choose Algorithm&#45;&gt;Pledge Branch</title>
<path fill="none" stroke="black" d="M207.71,-359.7C200.51,-351.3 191.74,-341.07 183.85,-331.86"/>
<polygon fill="black" stroke="black" points="186.37,-329.42 177.2,-324.1 181.05,-333.97 186.37,-329.42"/>
</g>
<!-- Tremaux Branch -->
<g id="node11" class="node">
<title>Tremaux Branch</title>
<polygon fill="orange" stroke="black" points="335.54,-324 229.54,-324 229.54,-288 335.54,-288 335.54,-324"/>
<text text-anchor="middle" x="282.54" y="-303.8" font-family="Times,serif" font-size="9.00">Ⓜ Tremaux Branch</text>
</g>
<!-- Choose Algorithm&#45;&gt;Tremaux Branch -->
<g id="edge10" class="edge">
<title>Choose Algorithm&#45;&gt;Tremaux Branch</title>
<path fill="none" stroke="black" d="M237.37,-359.7C244.56,-351.3 253.34,-341.07 261.23,-331.86"/>
<polygon fill="black" stroke="black" points="264.03,-333.97 267.88,-324.1 258.71,-329.42 264.03,-333.97"/>
</g>
<!-- Is Pledge -->
<g id="node6" class="node">
<title>Is Pledge</title>
<ellipse fill="gray" stroke="black" cx="55.54" cy="-234" rx="34.13" ry="18"/>
<text text-anchor="middle" x="55.54" y="-231.8" font-family="Times,serif" font-size="9.00">Is Pledge</text>
</g>
<!-- Pledge Branch&#45;&gt;Is Pledge -->
<g id="edge5" class="edge">
<title>Pledge Branch&#45;&gt;Is Pledge</title>
<path fill="none" stroke="black" d="M136.36,-287.88C120.7,-277.63 100.77,-264.59 84.62,-254.03"/>
<polygon fill="black" stroke="black" points="86.37,-250.99 76.09,-248.44 82.54,-256.85 86.37,-250.99"/>
</g>
<!-- Pledge Algorithm -->
<g id="node7" class="node">
<title>Pledge Algorithm</title>
<polygon fill="orange" stroke="black" points="217.54,-252 107.54,-252 107.54,-216 217.54,-216 217.54,-252"/>
<text text-anchor="middle" x="162.54" y="-231.8" font-family="Times,serif" font-size="9.00">Ⓜ Pledge Algorithm</text>
</g>
<!-- Pledge Branch&#45;&gt;Pledge Algorithm -->
<g id="edge6" class="edge">
<title>Pledge Branch&#45;&gt;Pledge Algorithm</title>
<path fill="none" stroke="black" d="M162.54,-287.7C162.54,-279.98 162.54,-270.71 162.54,-262.11"/>
<polygon fill="black" stroke="black" points="166.04,-262.1 162.54,-252.1 159.04,-262.1 166.04,-262.1"/>
</g>
<!-- Update Counter -->
<g id="node8" class="node">
<title>Update Counter</title>
<ellipse fill="gray" stroke="black" cx="52.54" cy="-162" rx="52.58" ry="18"/>
<text text-anchor="middle" x="52.54" y="-159.8" font-family="Times,serif" font-size="9.00">Update Counter</text>
</g>
<!-- Pledge Algorithm&#45;&gt;Update Counter -->
<g id="edge7" class="edge">
<title>Pledge Algorithm&#45;&gt;Update Counter</title>
<path fill="none" stroke="black" d="M135.63,-215.88C120.39,-206.18 101.21,-193.97 85.13,-183.74"/>
<polygon fill="black" stroke="black" points="86.86,-180.7 76.55,-178.28 83.11,-186.6 86.86,-180.7"/>
</g>
<!-- Follow Wall -->
<g id="node9" class="node">
<title>Follow Wall</title>
<ellipse fill="gray" stroke="black" cx="162.54" cy="-162" rx="39.67" ry="18"/>
<text text-anchor="middle" x="162.54" y="-159.8" font-family="Times,serif" font-size="9.00">Follow Wall</text>
</g>
<!-- Pledge Algorithm&#45;&gt;Follow Wall -->
<g id="edge8" class="edge">
<title>Pledge Algorithm&#45;&gt;Follow Wall</title>
<path fill="none" stroke="black" d="M162.54,-215.7C162.54,-207.98 162.54,-198.71 162.54,-190.11"/>
<polygon fill="black" stroke="black" points="166.04,-190.1 162.54,-180.1 159.04,-190.1 166.04,-190.1"/>
</g>
<!-- Move Forward -->
<g id="node10" class="node">
<title>Move Forward</title>
<ellipse fill="gray" stroke="black" cx="268.54" cy="-162" rx="47.84" ry="18"/>
<text text-anchor="middle" x="268.54" y="-159.8" font-family="Times,serif" font-size="9.00">Move Forward</text>
</g>
<!-- Pledge Algorithm&#45;&gt;Move Forward -->
<g id="edge9" class="edge">
<title>Pledge Algorithm&#45;&gt;Move Forward</title>
<path fill="none" stroke="black" d="M188.47,-215.88C203.12,-206.2 221.55,-194.03 237.03,-183.81"/>
<polygon fill="black" stroke="black" points="239.34,-186.48 245.76,-178.05 235.48,-180.64 239.34,-186.48"/>
</g>
<!-- Is Tremaux -->
<g id="node12" class="node">
<title>Is Tremaux</title>
<ellipse fill="gray" stroke="black" cx="282.54" cy="-234" rx="39.02" ry="18"/>
<text text-anchor="middle" x="282.54" y="-231.8" font-family="Times,serif" font-size="9.00">Is Tremaux</text>
</g>
<!-- Tremaux Branch&#45;&gt;Is Tremaux -->
<g id="edge11" class="edge">
<title>Tremaux Branch&#45;&gt;Is Tremaux</title>
<path fill="none" stroke="black" d="M282.54,-287.7C282.54,-279.98 282.54,-270.71 282.54,-262.11"/>
<polygon fill="black" stroke="black" points="286.04,-262.1 282.54,-252.1 279.04,-262.1 286.04,-262.1"/>
</g>
<!-- Tremaux Algorithm -->
<g id="node13" class="node">
<title>Tremaux Algorithm</title>
<polygon fill="orange" stroke="black" points="459.04,-252 340.04,-252 340.04,-216 459.04,-216 459.04,-252"/>
<text text-anchor="middle" x="399.54" y="-231.8" font-family="Times,serif" font-size="9.00">Ⓜ Tremaux Algorithm</text>
</g>
<!-- Tremaux Branch&#45;&gt;Tremaux Algorithm -->
<g id="edge12" class="edge">
<title>Tremaux Branch&#45;&gt;Tremaux Algorithm</title>
<path fill="none" stroke="black" d="M311.16,-287.88C326.46,-278.72 345.48,-267.34 361.96,-257.48"/>
<polygon fill="black" stroke="black" points="364.02,-260.33 370.81,-252.19 360.43,-254.32 364.02,-260.33"/>
</g>
<!-- Exit or Explore* -->
<g id="node14" class="node">
<title>Exit or Explore*</title>
<polygon fill="cyan" stroke="black" points="464.52,-154.54 464.52,-169.46 426.46,-180 372.62,-180 334.56,-169.46 334.56,-154.54 372.62,-144 426.46,-144 464.52,-154.54"/>
<text text-anchor="middle" x="399.54" y="-159.8" font-family="Times,serif" font-size="9.00">Ⓜ Exit or Explore*</text>
</g>
<!-- Tremaux Algorithm&#45;&gt;Exit or Explore* -->
<g id="edge13" class="edge">
<title>Tremaux Algorithm&#45;&gt;Exit or Explore*</title>
<path fill="none" stroke="black" d="M399.54,-215.7C399.54,-207.98 399.54,-198.71 399.54,-190.11"/>
<polygon fill="black" stroke="black" points="403.04,-190.1 399.54,-180.1 396.04,-190.1 403.04,-190.1"/>
</g>
<!-- Check Exit* -->
<g id="node15" class="node">
<title>Check Exit*</title>
<ellipse fill="gray" stroke="black" cx="348.54" cy="-90" rx="40.98" ry="18"/>
<text text-anchor="middle" x="348.54" y="-87.8" font-family="Times,serif" font-size="9.00">Check Exit*</text>
</g>
<!-- Exit or Explore*&#45;&gt;Check Exit* -->
<g id="edge14" class="edge">
<title>Exit or Explore*&#45;&gt;Check Exit*</title>
<path fill="none" stroke="black" d="M386.93,-143.7C380.79,-135.27 373.29,-124.97 366.56,-115.73"/>
<polygon fill="black" stroke="black" points="369.37,-113.64 360.65,-107.62 363.71,-117.77 369.37,-113.64"/>
</g>
<!-- Explore Step -->
<g id="node16" class="node">
<title>Explore Step</title>
<polygon fill="orange" stroke="black" points="496.04,-108 407.04,-108 407.04,-72 496.04,-72 496.04,-108"/>
<text text-anchor="middle" x="451.54" y="-87.8" font-family="Times,serif" font-size="9.00">Ⓜ Explore Step</text>
</g>
<!-- Exit or Explore*&#45;&gt;Explore Step -->
<g id="edge15" class="edge">
<title>Exit or Explore*&#45;&gt;Explore Step</title>
<path fill="none" stroke="black" d="M412.39,-143.7C418.56,-135.39 426.08,-125.28 432.86,-116.14"/>
<polygon fill="black" stroke="black" points="435.68,-118.22 438.83,-108.1 430.06,-114.04 435.68,-118.22"/>
</g>
<!-- Choose Unvisited Path -->
<g id="node17" class="node">
<title>Choose Unvisited Path</title>
<ellipse fill="gray" stroke="black" cx="262.54" cy="-18" rx="69.72" ry="18"/>
<text text-anchor="middle" x="262.54" y="-15.8" font-family="Times,serif" font-size="9.00">Choose Unvisited Path</text>
</g>
<!-- Explore Step&#45;&gt;Choose Unvisited Path -->
<g id="edge16" class="edge">
<title>Explore Step&#45;&gt;Choose Unvisited Path</title>
<path fill="none" stroke="black" d="M406.75,-72.41C377.72,-61.66 339.94,-47.67 310.33,-36.7"/>
<polygon fill="black" stroke="black" points="311.22,-33.3 300.63,-33.11 308.79,-39.86 311.22,-33.3"/>
</g>
<!-- Mark Path -->
<g id="node18" class="node">
<title>Mark Path</title>
<ellipse fill="gray" stroke="black" cx="387.54" cy="-18" rx="37.56" ry="18"/>
<text text-anchor="middle" x="387.54" y="-15.8" font-family="Times,serif" font-size="9.00">Mark Path</text>
</g>
<!-- Explore Step&#45;&gt;Mark Path -->
<g id="edge17" class="edge">
<title>Explore Step&#45;&gt;Mark Path</title>
<path fill="none" stroke="black" d="M435.72,-71.7C427.54,-62.75 417.45,-51.71 408.62,-42.06"/>
<polygon fill="black" stroke="black" points="411.2,-39.69 401.87,-34.67 406.03,-44.41 411.2,-39.69"/>
</g>
<!-- Move Forward Trémaux -->
<g id="node19" class="node">
<title>Move Forward Trémaux</title>
<ellipse fill="gray" stroke="black" cx="516.54" cy="-18" rx="73.15" ry="18"/>
<text text-anchor="middle" x="516.54" y="-15.8" font-family="Times,serif" font-size="9.00">Move Forward Trémaux</text>
</g>
<!-- Explore Step&#45;&gt;Move Forward Trémaux -->
<g id="edge18" class="edge">
<title>Explore Step&#45;&gt;Move Forward Trémaux</title>
<path fill="none" stroke="black" d="M467.61,-71.7C475.6,-63.09 485.38,-52.55 494.1,-43.17"/>
<polygon fill="black" stroke="black" points="496.86,-45.33 501.1,-35.62 491.73,-40.57 496.86,-45.33"/>
</g>
<!-- BacktrackIfDeadEnd -->
<g id="node20" class="node">
<title>BacktrackIfDeadEnd</title>
<ellipse fill="gray" stroke="black" cx="673.54" cy="-18" rx="65.48" ry="18"/>
<text text-anchor="middle" x="673.54" y="-15.8" font-family="Times,serif" font-size="9.00">BacktrackIfDeadEnd</text>
</g>
<!-- Explore Step&#45;&gt;BacktrackIfDeadEnd -->
<g id="edge19" class="edge">
<title>Explore Step&#45;&gt;BacktrackIfDeadEnd</title>
<path fill="none" stroke="black" d="M496.2,-74.92C532.69,-63.41 584.3,-47.14 622.44,-35.11"/>
<polygon fill="black" stroke="black" points="623.84,-38.34 632.32,-32 621.73,-31.66 623.84,-38.34"/>
</g>
</g>
</svg>
