<?xml version="1.0" encoding="UTF-8" standalone="no"?>
<!DOCTYPE svg PUBLIC "-//W3C//DTD SVG 1.1//EN"
 "http://www.w3.org/Graphics/SVG/1.1/DTD/svg11.dtd">
<!-- Generated by graphviz version 2.43.0 (0)
 -->
<!-- Title: pastafarianism Pages: 1 -->
<svg width="278pt" height="188pt"
 viewBox="0.00 0.00 277.60 188.00" xmlns="http://www.w3.org/2000/svg" xmlns:xlink="http://www.w3.org/1999/xlink">
<g id="graph0" class="graph" transform="scale(1 1) rotate(0) translate(4 184)">
<title>pastafarianism</title>
<polygon fill="white" stroke="transparent" points="-4,4 -4,-184 273.6,-184 273.6,4 -4,4"/>
<!-- Explorer Unblocked -->
<g id="node1" class="node">
<title>Explorer Unblocked</title>
<polygon fill="orange" stroke="black" points="219.68,-180 95.68,-180 95.68,-144 219.68,-144 219.68,-180"/>
<text text-anchor="middle" x="157.68" y="-159.8" font-family="Times,serif" font-size="9.00">Ⓜ Explorer Unblocked</text>
</g>
<!-- Exit or Choose -->
<g id="node2" class="node">
<title>Exit or Choose</title>
<polygon fill="cyan" stroke="black" points="156.17,-82.54 156.17,-97.46 120.15,-108 69.21,-108 33.2,-97.46 33.2,-82.54 69.21,-72 120.15,-72 156.17,-82.54"/>
<text text-anchor="middle" x="94.68" y="-87.8" font-family="Times,serif" font-size="9.00">Ⓜ Exit or Choose</text>
</g>
<!-- Explorer Unblocked&#45;&gt;Exit or Choose -->
<g id="edge1" class="edge">
<title>Explorer Unblocked&#45;&gt;Exit or Choose</title>
<path fill="none" stroke="black" d="M142.11,-143.7C134.48,-135.22 125.16,-124.86 116.81,-115.58"/>
<polygon fill="black" stroke="black" points="119.37,-113.2 110.08,-108.1 114.16,-117.88 119.37,-113.2"/>
</g>
<!-- Move Forward -->
<g id="node5" class="node">
<title>Move Forward</title>
<ellipse fill="gray" stroke="black" cx="221.68" cy="-90" rx="47.84" ry="18"/>
<text text-anchor="middle" x="221.68" y="-87.8" font-family="Times,serif" font-size="9.00">Move Forward</text>
</g>
<!-- Explorer Unblocked&#45;&gt;Move Forward -->
<g id="edge4" class="edge">
<title>Explorer Unblocked&#45;&gt;Move Forward</title>
<path fill="none" stroke="black" d="M173.5,-143.7C181.48,-134.97 191.29,-124.24 199.96,-114.75"/>
<polygon fill="black" stroke="black" points="202.76,-116.89 206.92,-107.14 197.59,-112.16 202.76,-116.89"/>
</g>
<!-- Check Exit -->
<g id="node3" class="node">
<title>Check Exit</title>
<ellipse fill="gray" stroke="black" cx="38.68" cy="-18" rx="38.87" ry="18"/>
<text text-anchor="middle" x="38.68" y="-15.8" font-family="Times,serif" font-size="9.00">Check Exit</text>
</g>
<!-- Exit or Choose&#45;&gt;Check Exit -->
<g id="edge2" class="edge">
<title>Exit or Choose&#45;&gt;Check Exit</title>
<path fill="none" stroke="black" d="M80.84,-71.7C73.93,-63.05 65.45,-52.46 57.91,-43.04"/>
<polygon fill="black" stroke="black" points="60.58,-40.77 51.6,-35.14 55.11,-45.14 60.58,-40.77"/>
</g>
<!-- Choose Direction -->
<g id="node4" class="node">
<title>Choose Direction</title>
<ellipse fill="gray" stroke="black" cx="150.68" cy="-18" rx="55.35" ry="18"/>
<text text-anchor="middle" x="150.68" y="-15.8" font-family="Times,serif" font-size="9.00">Choose Direction</text>
</g>
<!-- Exit or Choose&#45;&gt;Choose Direction -->
<g id="edge3" class="edge">
<title>Exit or Choose&#45;&gt;Choose Direction</title>
<path fill="none" stroke="black" d="M108.53,-71.7C115.34,-63.18 123.67,-52.76 131.12,-43.45"/>
<polygon fill="black" stroke="black" points="133.87,-45.62 137.38,-35.62 128.4,-41.24 133.87,-45.62"/>
</g>
</g>
</svg>
